<svg xmlns="http://www.w3.org/2000/svg" height="24px" viewBox="0 -960 960 960" width="24px" fill="#222222"><path d="M609-389q-29-29-29-71t29-71q29-29 71-29t71 29q29 29 29 71t-29 71q-29 29-71 29t-71-29ZM480-160v-56q0-24 12.5-44.5T528-290q36-15 74.5-22.5T680-320q39 0 77.5 7.5T832-290q23 9 35.5 29.5T880-216v56H480ZM287-527q-47-47-47-113t47-113q47-47 113-47t113 47q47 47 47 113t-47 113q-47 47-113 47t-113-47Zm113-113ZM80-160v-112q0-34 17-62.5t47-43.5q60-30 124.5-46T400-440q35 0 70 6t70 14l-34 34-34 34q-18-5-36-6.5t-36-1.5q-58 0-113.5 14T180-306q-10 5-15 14t-5 20v32h240v80H80Zm320-80Zm56.5-343.5Q480-607 480-640t-23.5-56.5Q433-720 400-720t-56.5 23.5Q320-673 320-640t23.5 56.5Q367-560 400-560t56.5-23.5Z"/></svg>