<svg width="16" height="16" enable-background="new 0 0 595.275 311.111" version="1.1" viewBox="0 0 16 16" xml:space="preserve" xmlns="http://www.w3.org/2000/svg"><path d="m2.5 0c-1.385 0-2.5 1.115-2.5 2.5v11c0 1.385 1.115 2.5 2.5 2.5h11c1.385 0 2.5-1.115 2.5-2.5v-11c0-1.385-1.115-2.5-2.5-2.5zm0.5 3h10c0.6875 0 1.25 0.5625 1.25 1.25v7.5c0 0.6875-0.5625 1.25-1.25 1.25h-10c-0.6875 0-1.25-0.5625-1.25-1.25l0.0059-7.5c-4.1e-5 -0.6875 0.5566-1.25 1.2441-1.25zm0 1.25v1.25l5 3.125 5-3.125v-1.25l-5 3.125z" stroke-width=".125"/></svg>
