<?xml version="1.0" encoding="UTF-8" standalone="no"?>
<svg width="32" height="32" enable-background="new 0 0 595.275 311.111" version="1.1" xmlns="http://www.w3.org/2000/svg" viewBox="0 0 32 32" xml:space="preserve" x="0px" y="0px"><rect width="32" height="32" x="0" rx="5" y="-.0000052588" fill="#0082c9" ry="5"/><path fill="#fff" d="m3.5556 7.4999c-0.8618 0-1.5556 0.6944-1.5556 1.5561v14.39c0 0.86188 0.69378 1.554 1.5556 1.554h24.888c0.862 0 1.556-0.692 1.556-1.554v-14.39c0-0.8621-0.694-1.5565-1.556-1.5565zm1.3125 1.7992 10.646 10.646h0.92366l10.694-10.646 1.0694 1.0694-6.3681 6.4653 4.8125 4.9097-1.0694 1.0694-4.9097-4.9097-3.5487 3.5972h-2.235l-3.548-3.596-4.9101 4.958-1.0695-1.119 4.8616-4.909-6.4171-6.4653z"/><path fill="#f00002" d="m30 7.0002a5 5 0 0 1 -10 0 5 5 0 1 1 10 0z"/></svg>
