<?xml version="1.0" encoding="UTF-8" standalone="no"?>
<svg xmlns:rdf="http://www.w3.org/1999/02/22-rdf-syntax-ns#" xmlns="http://www.w3.org/2000/svg" xml:space="preserve" height="128" viewBox="0 0 128 127.99999" width="128" version="1.1" y="0px" x="0px" xmlns:cc="http://creativecommons.org/ns#" xmlns:dc="http://purl.org/dc/elements/1.1/" enable-background="new 0 0 595.275 311.111"><rect rx="20" ry="20" height="128" width="128" y="-.0000015" x="0" fill="#1d2d44"/><path fill="#fff" d="m14.222 29.999c-3.4472 0-6.2223 2.7773-6.2223 6.2244v57.561c0 3.4475 2.7751 6.216 6.2223 6.216h99.555c3.4475 0 6.223-2.7685 6.223-6.216v-57.56c0-3.4472-2.7755-6.2244-6.223-6.2244zm5.25 7.1967 42.585 42.585h3.6946l42.777-42.585 4.2778 4.2777-25.472 25.861 19.25 19.639-4.2777 4.2777-19.639-19.639-14.195 14.389h-8.9446l-14.193-14.385-19.64 19.831-4.2781-4.473 19.445-19.639-25.667-25.86z"/><path fill="#ce3702" d="m31.496 5.8673a3.3116 3.3116 0 1 1 -6.6232 0 3.3116 3.3116 0 1 1 6.6232 0z" transform="matrix(4.8315 0 0 4.8315 -32.174 -4.3478)"/></svg>
