<svg width="128" height="128" enable-background="new 0 0 595.275 311.111" version="1.1" viewBox="0 0 128 128" xml:space="preserve" xmlns="http://www.w3.org/2000/svg"><rect width="128" height="128" rx="20" ry="20" fill="#0082c9"/><path d="m114 48.9v45.1c0 5.5-4.5 10-10 10h-80c-5.5 0-10-4.5-10-10v-60c0-5.5 4.5-10 10-10h50.5c-0.3 1.6-0.5 3.3-0.5 5 0 7.4 3.25 13.95 8.35 18.55l-18.35 11.45-40-25v10l40 25 26.5-16.6c2.7 1 5.5 1.6 8.5 1.6 5.65 0 10.8-1.95 15-5.1zm-30-19.9c0 8.3 6.7 15 15 15 8.3 0 15-6.7 15-15 0-8.3-6.7-15-15-15-8.3 0-15 6.7-15 15z" fill="#fff" stroke-width="5"/></svg>
