<?xml version="1.0" encoding="UTF-8" standalone="no"?>
<svg height="128" version="1.1" enable-background="new 0 0 595.275 311.111" xml:space="preserve" viewBox="0 0 128 128" width="128" xmlns="http://www.w3.org/2000/svg" x="0px" y="0px"><rect height="128" fill="#0082c9" rx="20" ry="20" width="128" x="0" y="-.0000015"/><path fill="#fff" d="m14.222 29.999c-3.4472 0-6.2223 2.7773-6.2223 6.2244v57.561c0 3.4475 2.7751 6.216 6.2223 6.216h99.555c3.4475 0 6.223-2.7685 6.223-6.216v-57.56c0-3.4472-2.7755-6.2244-6.223-6.2244zm5.25 7.1967 42.585 42.585h3.6946l42.777-42.585 4.2778 4.2777-25.472 25.861 19.25 19.639-4.2777 4.2777-19.639-19.639-14.195 14.389h-8.9446l-14.193-14.385-19.64 19.831-4.2781-4.473 19.445-19.639-25.667-25.86z"/></svg>
