<?xml version="1.0" encoding="UTF-8" standalone="no"?>
<svg xml:space="preserve" x="0px" viewBox="0 0 32 32" width="32" xmlns="http://www.w3.org/2000/svg" enable-background="new 0 0 595.275 311.111" version="1.1" height="32" y="0px"><rect fill="#0082c9" ry="5" x="0" width="32" rx="5" height="32" y="-.0000052588"/><path fill="#fff" d="m3.5556 7.4999c-0.8618 0-1.5556 0.6944-1.5556 1.5561v14.39c0 0.86188 0.69378 1.554 1.5556 1.554h24.888c0.862 0 1.556-0.692 1.556-1.554v-14.39c0-0.8621-0.694-1.5565-1.556-1.5565zm1.3125 1.7992 10.646 10.646h0.92366l10.694-10.646 1.0694 1.0694-6.3681 6.4653 4.8125 4.9097-1.0694 1.0694-4.9097-4.9097-3.5487 3.5972h-2.235l-3.548-3.596-4.9101 4.958-1.0695-1.119 4.8616-4.909-6.4171-6.4653z"/></svg>
