<svg width="32" height="32" enable-background="new 0 0 595.275 311.111" version="1.1" viewBox="0 0 32 32" xml:space="preserve" xmlns="http://www.w3.org/2000/svg"><rect width="32" height="32" rx="5" ry="5" fill="#0082c9" stroke-width=".25"/><path d="m28.5 12.225v11.275c0 1.375-1.125 2.5-2.5 2.5h-20c-1.375 0-2.5-1.125-2.5-2.5v-15c0-1.375 1.125-2.5 2.5-2.5h12.625c-0.075 0.4-0.125 0.825-0.125 1.25 0 1.85 0.8125 3.4875 2.0875 4.6375l-4.5875 2.8625-10-6.25v2.5l10 6.25 6.625-4.15c0.675 0.25 1.375 0.4 2.125 0.4 1.4125 0 2.7-0.4875 3.75-1.275zm-7.5-4.975c0 2.075 1.675 3.75 3.75 3.75s3.75-1.675 3.75-3.75c0-2.075-1.675-3.75-3.75-3.75s-3.75 1.675-3.75 3.75z" fill="#fff" stroke-width="1.25"/></svg>
